<svg width="100" height="100" viewBox="0 0 100 100" xmlns="http://www.w3.org/2000/svg"><title>handshake</title><g stroke="#FFBC00" stroke-width="2" fill="none" fill-rule="evenodd" stroke-linecap="round"><path d="M57 86c.6.6 2.3 0 3.8-1.5l2.4-2c1.5-1.4 1.7-3.7.3-5.3L57 70M57 70l5.3 5.3c2.3 2.3 6 2.3 8.5 0l-.5.4c2.3-2.3 2.3-6 0-8.4L61 58"/><path d="M61 58l6.2 6.2c2.3 2.4 6.2 2.4 8.5 0 2.4-2.3 2.4-6 0-8.4L52 32M32 11l5.5 5.5"/><rect transform="rotate(45 27.562 62.187)" x="22.6" y="52.2" width="10" height="19.9" rx="5"/><rect transform="rotate(45 39.968 69.83)" x="35" y="56.5" width="10" height="26.7" rx="5"/><rect transform="rotate(45 47.314 82.485)" x="42.3" y="74.5" width="10" height="16" rx="5"/><path d="M24 53L8 37M53 23L42.7 33.3c-2.3 2.3-6 2.3-8.5 0l1 1c-2.4-2.5-2.4-6.3 0-8.6l10.5-10.5c2.4-2.4 6.2-2.4 8.5 0l3.8 3.7c1.6 1.5 4 1.5 5.6 0l6.7-6.7M96 38L81 53"/></g></svg>