<svg width="100" height="100" viewBox="0 0 100 100" xmlns="http://www.w3.org/2000/svg"><title>lending</title><g stroke="#F70" stroke-width="2" fill="none" fill-rule="evenodd" stroke-linecap="round"><path d="M88 50c0-13.3-7-25-17.2-31.8"/><g transform="translate(36 8)"><circle cx="14" cy="14" r="14"/><circle cx="7" cy="12" r="1"/><circle cx="21" cy="12" r="1"/><path d="M11 17c0 4 6 4 6 0"/></g><g transform="translate(8 54)"><circle cx="14" cy="14" r="14"/><circle cx="8" cy="12" r="1"/><circle cx="20" cy="12" r="1"/><path d="M11 17c2-1 4-1 6 0 0 2 0 4-3 4s-3-2-3-4z"/></g><g transform="translate(64 54)"><circle cx="14" cy="14" r="14"/><circle cx="8" cy="12" r="1"/><circle cx="20" cy="12" r="1"/><path d="M13 21c3 1 5 0 6-2M18 17.2c1 2 2 1.8 4 1.8"/></g><path d="M28.5 18.7C18.5 25.5 12 37 12 50M38.2 86C42 87.4 46 88 50 88c4 0 8-.6 11.6-1.8"/></g></svg>