<svg width="100" height="100" viewBox="0 0 100 100" xmlns="http://www.w3.org/2000/svg"><title>savings</title><g fill="none" fill-rule="evenodd"><path d="M69 39c3 1 8 8 9 9h6.042c1.66 0 3.008 1.353 3.008 2.993v12.014c0 1.653-1.346 2.993-3.006 2.993H80c-1 3-6 11-11 12-2 2-2.67 10.363-2.67 10.363-.183 1.645-1.678 2.98-3.328 2.98h-3.008c-1.656 0-3.23-1.332-3.485-2.967 0 0-.51-2.376-.51-5.376-2 2-13 1-16 0 0 3-.56 6.118-.56 6.118-.244 1.63-1.787 2.953-3.437 2.953h-3.006c-1.655 0-3.17-1.323-3.395-2.97 0 0-.602-5.1-1.602-9.1-4.957-1.612-16-5.788-16-20.394C12 45 21 38 34 35s20-1 24 0c3-3 5-8 11-7v11z" stroke="#781E9B" stroke-width="2" stroke-linecap="round"/><circle stroke="#781E9B" stroke-width="2" stroke-linecap="round" cx="47.5" cy="15.5" r="8.5"/><path d="M47.48 17.752c.157 0 .3-.023.428-.067.13-.045.24-.11.334-.19.094-.083.167-.182.22-.297.053-.115.08-.245.085-.39h1.588c-.004.294-.057.565-.158.815-.102.25-.244.473-.425.668-.182.196-.397.36-.645.493s-.518.227-.81.28v1.373h-1.173V19.07c-.395-.062-.738-.186-1.03-.372-.294-.185-.54-.418-.734-.697-.195-.278-.34-.595-.436-.948-.096-.354-.144-.732-.144-1.134v-.164c0-.402.05-.78.147-1.137.097-.355.243-.673.436-.952.193-.28.437-.513.73-.7.293-.188.636-.313 1.03-.375v-1.313h1.173v1.32c.304.053.582.148.832.283.25.135.464.307.64.516.18.208.317.45.414.723.098.273.15.573.153.9h-1.588c-.004-.15-.03-.294-.08-.43-.048-.134-.117-.25-.207-.35-.09-.1-.2-.18-.334-.238-.133-.06-.285-.088-.457-.088-.247 0-.45.05-.605.152-.156.102-.278.238-.366.408-.09.17-.148.366-.18.588-.03.223-.047.454-.047.692v.164c0 .242.016.475.047.697.032.223.09.418.18.586.087.17.21.303.365.403.156.1.362.15.615.15z" fill="#7C249E"/><path d="M39 41.31c3-2.31 12-2.31 15 0" stroke="#781E9B" stroke-width="2" stroke-linecap="round"/></g></svg>